<svg xmlns="http://www.w3.org/2000/svg" width="130" height="21" viewBox="0 0 130 21"> <path class="logo-rest" d="M3.14536,19.85541H.52864A.53031.53031,0,0,1,0,19.32674V.71834A.50792.50792,0,0,1,.52864.217H3.14536A.50792.50792,0,0,1,3.674.71834v18.6084A.53031.53031,0,0,1,3.14536,19.85541Z" style="fill: #243569"></path> <path class="logo-rest" d="M23.45249,19.85541H20.78277a1.4205,1.4205,0,0,1-1.61238-.95135l-5.86776-12.872c-.07916-.1589-.15837-.21192-.23753-.21192-.07951,0-.13247.053-.13247.21192V19.32674a.50842.50842,0,0,1-.50213.52867H10.18374a.53049.53049,0,0,1-.52861-.52867V1.27376A1.0603,1.0603,0,0,1,10.71241.217h2.85481c.55457,0,.84565.15837,1.163.846l6.15855,13.58514c.05267.13218.13189.21134.21134.21134.053,0,.13218-.07916.13218-.23753V.71834A.48558.48558,0,0,1,21.73412.217h2.27352a.48558.48558,0,0,1,.50184.5013V18.79813A1.06,1.06,0,0,1,23.45249,19.85541Z" style="fill: #243569"></path> <path class="logo-rest" d="M40.49094,19.67137a19.93507,19.93507,0,0,1-4.17617.42326c-3.17156,0-7.47985-1.55912-7.47985-8.088V8.12105c0-6.63426,4.30829-8.088,7.47985-8.088A19.93776,19.93776,0,0,1,40.49094.4563c.344.10538.58164.23755.58164.60782v1.771c0,.31675-.13218.55486-.52867.55486h-.053c-.92458-.07916-2.7224-.21134-4.1232-.21134-2.22021,0-3.83265,1.18888-3.83265,4.94237v3.88561c0,3.67427,1.61244,4.94289,3.83265,4.94289,1.40081,0,3.19863-.13271,4.1232-.21187h.053c.39649,0,.52867.23811.52867.55539v1.771C41.07258,19.43384,40.835,19.566,40.49094,19.67137Z" style="fill: #243569"></path> <path class="logo-rest" d="M58.9894,19.85541H55.76488c-.29108,0-.39649-.26489-.529-.52867L51.43,12.26986h-.37024c-.687,0-1.74433-.07922-2.35216-.106v7.16287a.50848.50848,0,0,1-.50242.52867H45.56205a.53025.53025,0,0,1-.52838-.52867V1.14158c0-.52863.317-.7132.84565-.79238A36.02792,36.02792,0,0,1,51.05981.00513c4.07076,0,7.61232,1.45378,7.61232,5.974v.23753a5.35941,5.35941,0,0,1-3.568,5.39241l4.14962,7.71767a.354.354,0,0,1,.053.21134A.29173.29173,0,0,1,58.9894,19.85541ZM55.02458,5.97913c0-1.983-1.32159-2.82833-3.96477-2.82833-.55486,0-1.87645.053-2.35216.10593V9.20336c.423.02625,1.90294.07922,2.35216.07922,2.72234,0,3.96477-.74,3.96477-3.06592Z" style="fill: #243569"></path> <path class="logo-rest" d="M74.31205,19.69645a24.863,24.863,0,0,1-5.02211.3703c-3.43615,0-6.10559-.92458-6.10559-5.4186V5.42368c0-4.49344,2.66943-5.41855,6.10559-5.41855a24.91276,24.91276,0,0,1,5.02211.37028c.39649.053.52861.18457.52861.55483V2.62213a.53049.53049,0,0,1-.52861.52867H68.91964c-1.53235,0-2.08779.52861-2.08779,2.27288V8.27826h7.16287a.52986.52986,0,0,1,.52867.5292V10.7101a.52962.52962,0,0,1-.52867.52809H66.83185v3.41c0,1.74485.55545,2.27352,2.08779,2.27352h5.39241a.53036.53036,0,0,1,.52861.52809v1.69241C74.84066,19.51189,74.70854,19.64349,74.31205,19.69645Z" style="fill: #243569"></path> <path class="logo-rest" d="M107.68423,20.06675a20.20169,20.20169,0,0,1-4.67859-.47623.56465.56465,0,0,1-.50242-.52809V17.15979a.50215.50215,0,0,1,.50242-.503h.053c1.05728.13212,3.69988.26489,4.67859.26489,2.3521,0,3.06586-.84594,3.06586-2.37887,0-1.03109-.50242-1.55976-2.24669-2.5908l-3.4886-2.08785c-2.45861-1.45371-3.11947-2.9867-3.11947-4.8369,0-2.90754,1.69189-5.02212,6.60807-5.02212a29.46924,29.46924,0,0,1,5.07449.47624.53512.53512,0,0,1,.47623.50184V2.93887a.45224.45224,0,0,1-.44945.47623h-.053c-1.74433-.15837-3.4886-.26431-5.20668-.26431-1.95619,0-2.77536.687-2.77536,1.87645,0,.87213.44887,1.40075,2.16695,2.35268l3.17185,1.77046c2.90754,1.61273,3.67427,3.304,3.67427,5.39241C114.63576,17.21217,112.97012,20.06675,107.68423,20.06675Z" style="fill: #243569"></path> <path class="logo-rest" d="M129.47139,19.69645a24.86815,24.86815,0,0,1-5.02211.3703c-3.43616,0-6.10559-.92458-6.10559-5.4186V5.42368c0-4.49344,2.66943-5.41855,6.10559-5.41855a24.9179,24.9179,0,0,1,5.02211.37028C129.86782.42839,130,.56,130,.93024V2.62213a.53011.53011,0,0,1-.52861.52867h-5.39182c-1.53351,0-2.08838.52861-2.08838,2.27288V8.27826h7.16287a.53023.53023,0,0,1,.52867.5292V10.7101a.53.53,0,0,1-.52867.52809h-7.16287v3.41c0,1.74485.55486,2.27352,2.08838,2.27352h5.39182A.53.53,0,0,1,130,17.44976v1.69241C130,19.51189,129.86782,19.64349,129.47139,19.69645Z" style="fill: #243569"></path> <polygon class="logo-A" points="90.681 0 86.642 0 78.154 17.522 82.321 17.522 88.673 4.207 95.135 17.522 99.168 17.522 90.681 0" style="fill: #00d000"></polygon> </svg>
